<svg xmlns="http://www.w3.org/2000/svg" viewBox="0 0 1024 1024"><path d="M512.5 511.5m-317.5 0a317.5 317.5 0 1 0 635 0 317.5 317.5 0 1 0-635 0Z" fill="#FFD400"/><path d="M584.24 554c7.26 0 12.83 6.5 11.66 13.67-6.53 40.17-41.39 70.83-83.4 70.83s-76.87-30.66-83.4-70.83c-1.17-7.17 4.4-13.67 11.66-13.67h143.47z" fill="#FE5238"/><path d="M607 454m-36 0a36 36 0 1 0 72 0 36 36 0 1 0-72 0Z" fill="#323141"/><path d="M399.839102 400.302819m13.463313 13.463313l28.093352 28.093352q13.463313 13.463313 0 26.926627l-0.007071 0.007071q-13.463313 13.463313-26.926626 0l-28.093352-28.093353q-13.463313-13.463313 0-26.926626l0.007071-0.007071q13.463313-13.463313 26.926626 0Z" fill="#323141"/><path d="M454.854888 455.314738m-13.463313 13.463313l-28.093352 28.093353q-13.463313 13.463313-26.926627 0l-0.007071-0.007072q-13.463313-13.463313 0-26.926626l28.093353-28.093352q13.463313-13.463313 26.926626 0l0.007071 0.007071q13.463313 13.463313 0 26.926626Z" fill="#323141"/></svg>
