<?xml version="1.0" standalone="no"?><!DOCTYPE svg PUBLIC "-//W3C//DTD SVG 1.1//EN" "http://www.w3.org/Graphics/SVG/1.1/DTD/svg11.dtd"><svg class="icon" width="200px" height="200.00px" viewBox="0 0 1024 1024" version="1.1" xmlns="http://www.w3.org/2000/svg"><path fill="currentColor" d="M730.9312 63.0272H428.0832a320.1536 320.1536 0 0 0-319.7952 319.7952v381.7472a184.9856 184.9856 0 0 0 184.7808 184.7808h302.848A320.1536 320.1536 0 0 0 915.712 629.76V247.808a184.9856 184.9856 0 0 0-184.7808-184.7808z m-359.1168 317.44H512a35.84 35.84 0 0 1 0 71.68H371.8144a35.84 35.84 0 0 1 0-71.68z m280.3712 261.7856H371.8144a35.84 35.84 0 0 1 0-71.68h280.3712a35.84 35.84 0 0 1 0 71.68z"  /></svg>