<?xml version="1.0" standalone="no"?><!DOCTYPE svg PUBLIC "-//W3C//DTD SVG 1.1//EN" "http://www.w3.org/Graphics/SVG/1.1/DTD/svg11.dtd"><svg class="icon" width="200px" height="200.00px" viewBox="0 0 1024 1024" version="1.1" xmlns="http://www.w3.org/2000/svg"><path fill="currentColor" d="M735.232 98.4064H288.768a195.8912 195.8912 0 0 0-195.6864 195.6864v446.464a195.9424 195.9424 0 0 0 195.6864 195.6864h446.464a195.9424 195.9424 0 0 0 195.6864-195.6864v-446.464a195.8912 195.8912 0 0 0-195.6864-195.6864z m13.9264 581.2736H466.7392a114.944 114.944 0 1 1 0-71.68h282.4192a35.84 35.84 0 0 1 0 71.68zM670.0032 497.152a115.2 115.2 0 0 1-109.2096-79.104H272.4864a35.84 35.84 0 0 1 0-71.68h288.3584a114.944 114.944 0 1 1 109.1584 150.784z"  /><path fill="currentColor" d="M357.5296 600.576a43.3152 43.3152 0 1 0 43.264 43.264 43.3664 43.3664 0 0 0-43.264-43.264zM670.0032 338.944a43.264 43.264 0 1 0 43.3152 43.264 43.3152 43.3152 0 0 0-43.3152-43.264z"  /></svg>