<?xml version="1.0" standalone="no"?><!DOCTYPE svg PUBLIC "-//W3C//DTD SVG 1.1//EN" "http://www.w3.org/Graphics/SVG/1.1/DTD/svg11.dtd"><svg class="icon" width="200px" height="200.00px" viewBox="0 0 1024 1024" version="1.1" xmlns="http://www.w3.org/2000/svg"><path fill="currentColor" d="M780.032 258.0992H957.44a41.5232 41.5232 0 0 0 0-83.0464h-177.408a41.5232 41.5232 0 1 0 0 83.0464zM957.44 324.8128h-177.408a41.5232 41.5232 0 1 0 0 83.0464H957.44a41.5232 41.5232 0 0 0 0-83.0464zM957.44 488.704h-114.2784a41.5744 41.5744 0 0 0 0 83.0976H957.44a41.5744 41.5744 0 0 0 0-83.0976z"  /><path fill="currentColor" d="M861.184 845.9776a422.7072 422.7072 0 0 0-274.944-330.5984 243.4048 243.4048 0 1 0-285.2864 0 422.7072 422.7072 0 0 0-274.944 330.5984 88.9856 88.9856 0 0 0 87.9104 103.1168H773.12a89.1392 89.1392 0 0 0 87.9104-103.1168z m-270.592-14.1312H296.5504a41.5232 41.5232 0 0 1 0-83.0464h294.0416a41.5232 41.5232 0 0 1 0 83.0464z"  /></svg>